<mxfile host="app.diagrams.net" modified="2023-10-01T15:49:56.271Z" agent="Mozilla/5.0 (X11; Linux x86_64) AppleWebKit/537.36 (KHTML, like Gecko) Chrome/117.0.0.0 Safari/537.36" version="21.7.4" etag="zm8njAjdFBq-oCHljgJ2" type="github">
  <diagram name="Page-1" id="bsTo58zp84ljqE6qS9Kt">
    <mxGraphModel>
      <root>
        <mxCell id="0" />
        <mxCell id="1" parent="0" />
      </root>
    </mxGraphModel>
  </diagram>
</mxfile>
